<svg xmlns="http://www.w3.org/2000/svg" viewBox="0 0 450 450" width="4.5mm" height="4.5mm" shape-rendering="geometricPrecision" image-rendering="optimizeQuality">
   <path fill="#73AF00" d="M-3.6 228.6c0,126.12 102.64,225 225,225 124.26,0 225,-100.74 225,-225 0,-124.26 -100.74,-225 -225,-225 -123.51,0 -225,100.02 -225,225z"/>
    <path fill="#8F4D2E" d="M308.66 237.19l-1.85 16.66 -1.25 11.22 -157.1 0 -1.25 -11.22 -1.85 -16.66c-0.35,-3.15 -0.53,-6.35 -0.53,-9.53 0,-11.68 2.38,-23.26 6.98,-34 4.6,-10.74 6.98,-22.34 6.98,-34.03 0,-1.42 -0.04,-2.88 -0.11,-4.29l-0.97 -19.41c-0.05,-1.15 -0.09,-2.31 -0.09,-3.46 0,-38.32 31.08,-69.39 69.39,-69.39 38.32,0 69.39,31.07 69.39,69.39 0,1.15 -0.03,2.31 -0.09,3.46l-0.97 19.41c-0.07,1.41 -0.11,2.87 -0.11,4.29 0,11.69 2.39,23.29 6.99,34.03 4.58,10.74 6.97,22.31 6.97,34 0,3.18 -0.18,6.37 -0.52,9.53l-0.01 0z"/>
    <path fill="#82462A" d="M308.66 237.19l-1.85 16.66 -62.97 0 0 -61.72 11.23 -22.45 0 -44.88c-0.01,-27.8 -18.6,-52.18 -45.41,-59.54 5.63,-1.45 11.45,-2.18 17.27,-2.18 38.36,0 69.47,31.1 69.47,69.46 0,1.13 -0.04,2.27 -0.09,3.39l-0.97 19.41c-0.07,1.41 -0.11,2.87 -0.11,4.29 0,11.69 2.39,23.29 6.99,34.03 4.58,10.74 6.97,22.31 6.97,34 0,3.18 -0.18,6.37 -0.52,9.53l-0.01 0z"/>
    <path fill="#FEC9A3" d="M257.31 242.63c0,0 0,0 0,0 -4.34,0 -7.86,-3.52 -7.86,-7.85 0,-0.01 0,-0.01 0,-0.01l0 -37.03 -44.88 0 0 37.03c0,0 0,0 0,0.01 0,4.33 -3.52,7.85 -7.85,7.85 0,0 -0.01,0 -0.01,0l-8.98 0 0 33.66 78.56 0 0 -33.66 -8.98 0z"/>
    <path fill="#FEB784" d="M230.39 225.79c6.95,-0.07 13.67,-2.5 19.06,-6.88l0 -21.17 -44.88 0 0 21.17c5.39,4.38 12.11,6.81 19.06,6.88l6.76 0z"/>
    <path fill="#FEC9A3" d="M277.51 136.02l0 28.05c0,27.89 -22.61,50.5 -50.5,50.5 -27.88,0 -50.5,-22.61 -50.5,-50.5l0 -28.05c11.02,-7.34 19.96,-17.47 25.88,-29.31l2.18 -4.35 3.18 2.66c13.92,11.6 30.04,20.42 47.32,25.88 7.3,2.3 14.86,4.04 22.44,5.11l0 0.01z"/>
    <path fill="#FEC093" d="M277.51 136.02l0 28.05c0,24.18 -17.14,44.96 -40.86,49.58 11.77,-11.55 18.42,-27.38 18.42,-43.88 0,-0.03 0,-0.06 0,-0.09l0 -38.79c7.3,2.31 14.86,4.05 22.44,5.12l0 0.01z"/>
    <path fill="#7A432A" d="M201.76 158.46c-4.65,0 -8.41,-3.77 -8.41,-8.41 0,-4.65 3.76,-8.42 8.41,-8.42 4.65,0 8.42,3.77 8.42,8.42 -0.01,4.64 -3.77,8.41 -8.42,8.41l0 0z"/>
    <path fill="#7A432A" d="M252.26 158.46c-4.65,0 -8.42,-3.77 -8.42,-8.41 0,-4.65 3.77,-8.42 8.42,-8.42 4.65,0 8.42,3.77 8.42,8.42 -0.01,4.64 -3.77,8.41 -8.42,8.41z"/>
    <path fill="#F7A468" d="M227.01 186.52c-9.29,-0.01 -16.82,-7.54 -16.83,-16.84l11.22 0c0,3.1 2.51,5.62 5.61,5.62 3.1,0 5.61,-2.52 5.61,-5.62l11.22 0c0,9.3 -7.54,16.83 -16.83,16.84l0 0z"/>
    <polygon fill="#E0E0DE" points="198.96,265.07 255.07,265.07 255.07,304.35 198.96,304.35 "/>
    <path fill="#EC8C8C" d="M341.31 388.28c-0.92,0.15 -1.86,0.23 -2.8,0.23 -7.28,0 -13.76,-4.63 -16.11,-11.53l-37.06 -69.53c1.49,4.47 2.25,9.15 2.25,13.86 0,10.2 -3.57,20.08 -10.08,27.93l0 44.88 -101 0 0 -44.88c-6.54,-7.86 -10.14,-17.79 -10.14,-28.02 0,-4.86 0.82,-9.7 2.4,-14.29l-37.66 70.05c-2.35,6.9 -8.83,11.54 -16.12,11.54 -9.4,0 -17.03,-7.62 -17.03,-17.02 0,-1.77 0.28,-3.53 0.82,-5.21l41.2 -102.55c5.12,-12.75 17.49,-21.11 31.23,-21.11 0,0 0,0 0,0l22.14 0 33.66 61.72 33.67 -61.72 22.04 0c13.79,0.01 26.18,8.42 31.28,21.23l40.73 102.43c0.53,1.68 0.81,3.43 0.81,5.19 0,8.32 -6.02,15.43 -14.23,16.8l0 0z"/>
    <path fill="#F59898" d="M93.91 368.18l4.05 -52.61 33.66 0 0 54.06c0,10.43 -8.45,18.88 -18.88,18.88 0,0 0,0 0,0 -10.43,0 -18.88,-8.45 -18.88,-18.88 0,-0.48 0.01,-0.97 0.05,-1.45l0 0z"/>
    <path fill="#FEC9A3" d="M111.16 233.72c-4.86,1.21 -8.27,5.58 -8.27,10.59 0,1.69 0.4,3.37 1.15,4.88l5.14 10.27 -20.11 0c0,0 0,0 0,0 -5.22,0 -10.38,-1.22 -15.05,-3.56l-5.59 -2.79c-0.94,-0.47 -1.97,-0.71 -3.01,-0.71 -3.72,0 -6.74,3.01 -6.74,6.73l0 15.84c0,4.25 2.41,8.13 6.21,10.03l9.13 4.57c4.67,2.33 9.83,3.56 15.05,3.56 0,0 0,0 0,0l42.55 0 0 -33.67 -7.68 -19.21c-1.66,-4.14 -5.67,-6.86 -10.13,-6.86 -0.89,0 -1.79,0.11 -2.65,0.33z"/>
    <polygon fill="#E0E0DE" points="97.96,293.13 131.62,293.13 131.62,315.57 97.96,315.57 "/>
    <path fill="#E07F7F" d="M341.31 388.28c-0.92,0.15 -1.86,0.23 -2.8,0.23 -7.28,0 -13.76,-4.63 -16.11,-11.53l-37.06 -69.53c1.49,4.47 2.25,9.15 2.25,13.86 0,10.2 -3.57,20.08 -10.08,27.93l0 44.88 -99.15 0c46.31,-30.24 85.38,-68.62 118.18,-148.52 7.97,3.58 14.24,10.14 17.46,18.26l40.73 102.43c0.53,1.68 0.81,3.43 0.81,5.19 0,8.32 -6.02,15.43 -14.23,16.8l0 0z"/>
    <polygon fill="#A36548" points="305.56,371.68 249.45,360.46 249.45,281.9 305.56,293.13 "/>
    <polygon fill="#8F4D2E" points="328.01,371.68 384.12,360.46 384.12,281.9 328.01,293.13 "/>
    <polygon fill="#95573A" points="305.56,293.13 328.01,293.13 328.01,371.68 305.56,371.68 "/>
    <path fill="#D4BD81" d="M316.79 293.13c0,-9.72 -7.03,-18.01 -16.61,-19.6l-50.73 -8.46 0 16.83 56.11 11.23 11.23 0c0,-9.72 7.02,-18.01 16.6,-19.6l50.73 -8.46 0 16.83 -56.11 11.23 -11.22 0z"/>
    <path fill="#FEC9A3" d="M373.82 371.14l-22.45 3.75c-0.3,0.05 -0.61,0.07 -0.92,0.07 -3.1,0 -5.61,-2.51 -5.61,-5.61l0 -20.85c0,0 0,-0.01 0,-0.01 0,-3.56 2.58,-6.61 6.1,-7.2l19.06 -3.18c0.4,-0.06 0.8,-0.1 1.2,-0.1 4.04,0 7.31,3.28 7.31,7.31 0,0 0,0 0,0l0 20.29c0,2.74 -1.99,5.08 -4.69,5.53l0 0z"/>
</svg>