<svg xmlns="http://www.w3.org/2000/svg" viewBox="0 0 450 450" width="4.5mm" height="4.5mm" version="1.1" shape-rendering="geometricPrecision" image-rendering="optimizeQuality">
<path fill="#FFE67D" fill-rule="nonzero" d="M446.4 228.6c0,124.26 -100.74,225 -225,225 -124.26,0 -225,-100.74 -225,-225 0,-124.26 100.74,-225 225,-225 124.26,0 225,100.74 225,225z"/>
<path fill="#B9783D" fill-rule="nonzero" d="M338.93 184.29l-31.98 87.84 -23.7 65.13 -26.47 72.71c-4.82,13.26 -19.48,20.09 -32.74,15.27 -1.24,-0.45 -2.42,-0.99 -3.55,-1.6 -1.07,0.58 -2.21,1.09 -3.39,1.52l0 0c-13.26,4.83 -27.92,-2.01 -32.75,-15.27l-82.14 -225.68c-4.52,-12.42 1.88,-26.15 14.3,-30.67l3.05 -1.11c12.41,-4.51 26.14,1.89 30.66,14.3l31.98 87.85 13.65 37.52 0 -136.58c0,-13.21 10.71,-23.93 23.93,-23.93l3.24 0c13.21,0 23.92,10.72 23.92,23.93l0 93.49 0 38.6 43.97 -120.8c4.52,-12.42 18.25,-18.82 30.67,-14.3l3.04 1.11c12.42,4.52 18.83,18.25 14.31,30.67z"/>
<path fill="#965028" fill-rule="nonzero" d="M332.48 159.05c-9.55,0.87 -18.22,7.1 -21.71,16.71l-81.59 224.16c-2.09,5.74 -1.98,11.74 -0.12,17.1 1.02,0.67 2.09,1.27 3.2,1.79 -0.69,0.33 -1.39,0.61 -2.11,0.87 1.23,2.58 2.89,4.95 4.92,7 -3.63,0.33 -7.38,-0.11 -11.03,-1.44l0 0c-1.24,-0.45 -2.43,-0.99 -3.55,-1.61 -1.08,0.58 -2.21,1.1 -3.39,1.53l0 0c-13.26,4.83 -27.92,-2.01 -32.75,-15.27l-81.58 -224.16c-4.83,-13.26 2.01,-27.92 15.26,-32.74l0 0c3.65,-1.33 7.41,-1.77 11.04,-1.44 -6.76,6.8 -9.4,17.15 -5.9,26.76l72.68 199.69 0 -220.86c0,-14.11 11.44,-25.55 25.55,-25.55l0 0c3.88,0 7.56,0.87 10.86,2.42 -8.68,4.09 -14.69,12.91 -14.69,23.13l0 211.19 72.79 -200c4.83,-13.26 19.49,-20.09 32.74,-15.27l0 0c3.65,1.33 6.81,3.41 9.38,5.99z"/>
<path fill="#80391B" fill-rule="nonzero" d="M270.84 33.76l-8.82 31.28 -13.19 39.74c-7.04,-1.75 -16.73,-2.82 -27.43,-2.82 -10.7,0 -20.39,1.08 -27.43,2.82l-13.03 -39.27 -7.56 -31.75c-1.98,-5.99 0.17,-12.63 5.39,-16.17 13.01,-8.83 25.73,-11.79 42.63,-11.79 16.9,0 31.04,2.96 44.05,11.79 5.22,3.54 7.38,10.18 5.39,16.17zm94.04 11.81c0.17,-0.49 0.09,-1.03 -0.04,-1.53 -0.61,-2.35 0.92,-4.27 -1.06,-2.87l-51.63 38.89c-5.51,3.92 -11.87,6.45 -15.11,11.99 -7.5,12.83 -8.61,28.9 -2,43.09l0 0c5.8,12.44 16.41,21.1 28.58,24.81 10.58,3.22 22.34,2.7 33.16,-2.34l0 0c7.68,-3.58 14.4,-8.77 18.53,-15.62 5.05,-8.35 6.99,-16.55 7.08,-24.57 0.29,-27.77 -25.06,-50.48 -17.51,-71.85zm-288.5 -6.81c-5.71,20.87 -9.02,50.31 -2.74,76.3 1.22,5.05 2.63,9.79 4.18,14.05 9.53,26.19 22.72,29.32 46.16,40.2 10.95,-23.4 19.05,-34.27 9.51,-60.47 -1.58,-4.33 -3.42,-9.05 -5.96,-13.7 -13.14,-24.08 -31.15,-41.88 -51.15,-56.38z"/>
<path fill="#FF5A5F" fill-rule="nonzero" d="M272.4 33.76l-11.15 33.61c-4.2,-0.61 -7.55,-3.77 -8.44,-7.86l0 -21.25c0,-5.62 -4.56,-10.17 -10.17,-10.17l-0.77 0c-5.62,0 -10.17,4.55 -10.17,10.17l0 1.82c-1.03,4.53 -5.07,7.92 -9.91,7.92l-0.78 0c-4.84,0 -8.88,-3.39 -9.91,-7.92l0 -1.82c0,-5.62 -4.55,-10.17 -10.17,-10.17l-0.77 0c-5.61,0 -10.17,4.55 -10.17,10.17l0 21.25c-0.89,4.09 -4.24,7.26 -8.44,7.87l-11.15 -33.62c-1.99,-5.99 0.17,-12.63 5.39,-16.17 13.01,-8.83 28.71,-13.99 45.61,-13.99 16.9,0 32.6,5.16 45.61,13.99 5.22,3.54 7.38,10.18 5.39,16.17z"/>
<path fill="#6E96DC" fill-rule="nonzero" d="M382.28 120.08c-2.39,1.62 -5.49,2.12 -8.41,1.05l0 0c-4.19,-1.52 -6.61,-5.73 -6.05,-9.97l0.69 -1.9c1.76,-4.84 -0.74,-10.2 -5.58,-11.96l0 0c-4.84,-1.76 -10.19,0.74 -11.95,5.58l-9.2 25.27c-2.3,3.61 -6.86,5.27 -11.05,3.75 -4.18,-1.52 -6.61,-5.73 -6.05,-9.97l9.2 -25.28c1.76,-4.84 -0.74,-10.19 -5.58,-11.95 -4.84,-1.76 -10.19,0.73 -11.95,5.57l-2.82 7.75c-2.3,3.61 -6.86,5.27 -11.05,3.75 -3.69,-1.35 -6.01,-4.78 -6.12,-8.49 3.28,-6.04 7.94,-11.42 13.85,-15.63l52.63 -38.34c1.98,-1.41 4.75,-0.4 5.36,1.95 0.13,0.5 0.22,1.04 0.04,1.53 -7.79,22.05 15.87,48.49 14.04,77.29z"/>
<path fill="#3CAF96" fill-rule="nonzero" d="M110.46 103.79l-6.45 -17.73c-1.84,-5.04 -7.41,-7.64 -12.45,-5.81 -5.04,1.84 -7.64,7.41 -5.8,12.45l6.45 17.73c0.62,4.44 -1.9,8.85 -6.28,10.45 -4.73,1.72 -9.92,-0.46 -12.06,-4.9 -6.47,-26.11 -7.98,-60.92 1.31,-80.74l0 0c19.85,9.22 41.08,36.85 52.9,61.01 1.21,4.77 -1.37,9.78 -6.1,11.5 -4.37,1.6 -9.14,-0.17 -11.52,-3.96z"/>
<path fill="#9BB9C3" fill-rule="nonzero" d="M327.03 269.67l-14.99 164.91c-27.73,12.22 -58.39,19.02 -90.64,19.02 -32.25,0 -62.91,-6.8 -90.64,-19.02l-14.99 -164.91c-0.44,-4.8 3.34,-8.93 8.15,-8.93l194.96 0c4.81,0 8.59,4.14 8.15,8.93z"/>
<path fill="#87A0AF" fill-rule="nonzero" d="M313.13 422.54l-1.09 12.04c-27.73,12.22 -58.39,19.02 -90.64,19.02 -32.25,0 -62.91,-6.8 -90.64,-19.02l-14.99 -164.91c-0.44,-4.8 3.34,-8.93 8.15,-8.93l21.92 0c-0.01,0.71 -0.03,1.42 -0.03,2.14 0,89.8 62.96,162.6 140.63,162.6 9.13,0 18.05,-1.02 26.69,-2.94z"/>
<path fill="#FFF5AF" fill-rule="nonzero" d="M347.98 159.4l0 0c-0.22,0.6 -0.45,1.2 -0.69,1.79l0.04 0.01 -17.48 48.01 0 0 -0.24 0.68 -48.01 -17.47 5.93 -16.3 11.79 -32.39 0.03 0.01c0.2,-0.61 0.4,-1.21 0.62,-1.81l0 0c1.21,-3.32 12.93,-2.09 26.19,2.73 13.26,4.83 23.03,11.43 21.82,14.74zm-190.07 28.46l-17.47 -48.01 -0.04 0.01c-0.19,-0.61 -0.4,-1.21 -0.62,-1.81l0 0c-1.2,-3.32 -12.93,-2.09 -26.19,2.73 -13.25,4.83 -23.02,11.43 -21.82,14.74l0 0c0.22,0.6 0.45,1.2 0.69,1.79l-0.03 0.01 11.79 32.4 5.93 16.29 48.01 -17.47 -0.25 -0.68 0 0zm92.14 -90.1c-7.12,-1.93 -17.32,-3.14 -28.65,-3.14 -11.33,0 -21.53,1.21 -28.65,3.14 -1.62,0.44 -2.62,2.07 -2.31,3.72l5.07 26.84 0.34 33.06 0 17.34 51.1 0 0 -0.72 0.34 -49.68 5.07 -26.84c0.31,-1.65 -0.69,-3.28 -2.31,-3.72z"/>
<path fill="#E6B464" fill-rule="nonzero" d="M332.95 170.83l-0.05 0.14c-1.14,3.14 -4.52,4.81 -7.73,3.88 -0.55,-0.16 -1.1,-0.34 -1.64,-0.53l-10.6 -3.86 -2.5 6.87 10.6 3.85c0.31,0.12 0.62,0.23 0.94,0.33 3.45,1.1 5.35,4.78 4.11,8.19l-0.05 0.14c-1.14,3.14 -4.52,4.81 -7.73,3.88 -0.55,-0.16 -1.1,-0.34 -1.64,-0.53l-10.6 -3.86 -3.85 10.59 -20.61 -7.5 5.93 -16.3 0.42 -1.16 4.37 -12 7 -19.23 0.03 0.01c0.2,-0.61 0.4,-1.21 0.62,-1.81l0 0c1.21,-3.32 12.93,-2.09 26.19,2.73 3.69,1.35 7.11,2.83 10.1,4.34 -8.45,-1.99 -14.8,-1.96 -15.67,0.43l0 0c-0.22,0.6 -0.43,1.21 -0.62,1.81l-0.04 -0.01 -2.63 7.23 10.59 3.85c0.32,0.12 0.63,0.22 0.95,0.33 3.45,1.1 5.35,4.78 4.11,8.19zm-190.47 4.5c-1.24,-3.4 -5.06,-5 -8.42,-3.63 -0.3,0.13 -0.61,0.25 -0.93,0.36l-10.59 3.86 -2.5 -6.87 10.59 -3.86c0.55,-0.19 1.08,-0.41 1.61,-0.64 3.05,-1.35 4.56,-4.81 3.42,-7.95l-0.05 -0.14c-1.24,-3.4 -5.06,-5 -8.42,-3.63 -0.3,0.13 -0.61,0.25 -0.93,0.36l-10.59 3.86 -2.63 -7.23 0.04 -0.01c-0.24,-0.59 -0.48,-1.19 -0.69,-1.79l0 0c-0.87,-2.39 3.97,-6.5 11.72,-10.41 -3.26,0.77 -6.83,1.83 -10.52,3.17 -13.25,4.83 -23.02,11.43 -21.82,14.74 0.22,0.6 0.45,1.2 0.69,1.79l-0.03 0.01 7 19.23 2.23 6.14 2.56 7.03 5.93 16.29 20.61 -7.5 -3.85 -10.59 10.59 -3.86c0.55,-0.19 1.08,-0.41 1.61,-0.64 3.05,-1.35 4.56,-4.81 3.42,-7.95l-0.05 -0.14zm87.58 -40.75c-0.33,0.01 -0.66,0.02 -1,0.02l-11.27 0 0 -15.93c-0.09,0 -4.68,-23.83 -4.68,-23.83 -7.97,0.43 -15.03,1.47 -20.36,2.92 -1.62,0.44 -2.62,2.07 -2.31,3.72l5.07 26.84 0.34 19.05 0 12.77 0 1.24 0 17.34 21.94 0 0 -5.81 0 -5.46 11.27 0c0.59,0 1.16,-0.02 1.73,-0.05 3.33,-0.23 5.94,-2.96 5.94,-6.3l0 -0.15c0,-3.62 -3.05,-6.43 -6.67,-6.29 -0.33,0.02 -0.66,0.02 -1,0.02l-11.27 0 0 -7.31 11.27 0c0.59,0 1.16,-0.02 1.73,-0.06 3.33,-0.22 5.94,-2.95 5.94,-6.29l0 -0.15c0,-3.62 -3.05,-6.43 -6.67,-6.29z"/>
</svg>