<svg xmlns="http://www.w3.org/2000/svg" viewBox="0 0 450 450" width="4.5mm" height="4.5mm" shape-rendering="geometricPrecision" image-rendering="optimizeQuality">
<circle fill="#339966" cx="221.4" cy="228.6" r="225"/>
<path fill="#F9F7F8" fill-rule="nonzero" d="M313.35 220.57l-10.85 -10.53 -13.08 -2.89 -77.75 90.17 -38.62 43.01 -66.87 0 -6.88 8 0 7.64c0,5.5 4.46,9.96 9.96,9.96l69.03 0c4.33,0 8.5,-1.59 11.73,-4.47l122.68 -109.48c9.29,-8.3 9.59,-22.73 0.65,-31.41z"/>
<path fill="#FFE5C2" fill-rule="nonzero" d="M260.35 177.22l-64.48 -80.81c-0.39,-0.49 -0.98,-0.78 -1.61,-0.78l-101.42 0c-1.81,0 -2.75,2.17 -1.5,3.49l81 85.62c2.11,2.23 3.36,5.14 3.53,8.22l1.21 22.65 1.15 51.2 110.77 -60.44 -28.65 -29.15z"/>
<path fill="#FED2A4" fill-rule="nonzero" d="M207.03 215.61l-1.21 -22.65c-0.16,-3.08 -1.42,-5.99 -3.53,-8.22l-81 -85.62c-0.1,-0.11 -0.18,-0.23 -0.26,-0.34l-2.99 -3.15 -25.2 0c-1.81,0 -2.75,2.17 -1.5,3.49l81 85.62c2.11,2.23 3.36,5.14 3.53,8.22l1.21 22.65 1.15 51.2 29.59 -16.15 -0.79 -35.05z"/>
<path fill="#E5E1E5" fill-rule="nonzero" d="M143.42 353.56c-5.5,0 -11.08,-3.82 -11.08,-9.33l1.02 -3.89 -27.2 0 -6.87 7.99 0 7.65c0,5.5 4.46,9.96 9.96,9.96l69.03 0c4.32,0 8.5,-1.59 11.72,-4.47l8.86 -7.91 -55.44 0z"/>
<path fill="#98BCE5" fill-rule="nonzero" d="M231.52 202l-19.33 14.88c-3.63,2.79 -8.48,3.45 -12.73,1.7l-4.17 -1.7c-3.41,-1.4 -6.91,-2.57 -10.47,-3.51 -3.56,-0.94 -7.18,-1.65 -10.83,-2.12 -4.23,-0.55 -8.16,2.27 -8.99,6.45l-3.79 19.14 0.93 0 0 8.35 -2.59 0 -1.79 9.03 2.57 0 0 8.35 -4.22 0 -1.79 9.02 1.2 0 0 8.35 -2.86 0 -1.79 9.03 2.38 0 0 8.35 -4.03 0 -2.8 14.13c-0.77,3.83 -3.72,6.85 -7.52,7.7l-24.7 5.49c-8.7,1.93 -14.9,9.65 -14.9,18.56l0 5.13 75.15 0c2.29,0 4.48,-0.97 6.01,-2.68l16.01 -17.79 0 0 14.11 -19.56 5.37 -42.1 22.12 -66.72 -6.55 2.52z"/>
<path fill="#7BACDF" fill-rule="nonzero" d="M133.47 335.95l0 -5.12c0,-4.19 1.37,-8.12 3.73,-11.3l-23 5.11c-8.7,1.93 -14.9,9.65 -14.9,18.56l0 5.13 34.17 0 0 -12.38z"/>
<path fill="#98BCE5" fill-rule="nonzero" d="M262.89 171.61c-1.78,-1.72 -4.75,-1.07 -5.63,1.24l-5.08 13.25 -1.42 1.1 -7.56 15.38 -5.13 78.17 9.63 -9.82 54.8 -60.89 -39.61 -38.43z"/>
<path fill="#FEF0AE" fill-rule="nonzero" d="M243.2 193.02l-13.2 49.62c-4.5,16.94 -5.73,34.58 -3.62,51.99l0 0.01 -29.91 33.22c2.94,-33.55 10.88,-66.46 23.58,-97.66l11.47 -28.2 11.68 -8.98z"/>
<path fill="#FE99A0" fill-rule="nonzero" d="M243.2 193.02l7.56 -5.82 -4 40.7c-1.4,14.33 -1.09,28.78 0.94,43.03l0 0.01 -21.32 23.69c-2.11,-17.41 -0.88,-35.05 3.62,-51.99l13.2 -49.62z"/>
<path fill="black" fill-rule="nonzero" d="M324.03 236.5c0.15,-7.09 -2.68,-13.99 -7.77,-18.93l-50.47 -48.96c-1.84,-1.79 -4.44,-2.52 -6.95,-1.97 -0.34,0.07 -0.66,0.17 -0.97,0.29l-62.44 -78.27c-1.44,-1.8 -4.07,-2.1 -5.87,-0.66 -1.81,1.44 -2.1,4.07 -0.66,5.87l63.6 79.72 -3.8 9.92 -39.05 30.05c-2.45,1.89 -5.75,2.33 -8.61,1.16l-4.17 -1.7c-6.08,-2.49 -12.42,-4.3 -18.89,-5.39l-1.03 -19.26c-0.22,-4.06 -1.88,-7.92 -4.67,-10.87l-84.3 -89.1c-1.58,-1.68 -4.22,-1.75 -5.9,-0.17 -1.67,1.59 -1.75,4.23 -0.16,5.91l84.29 89.1c1.44,1.51 2.29,3.49 2.4,5.57l1 18.67c-4.31,1.24 -7.78,4.78 -8.7,9.42l-18.59 93.74c-0.44,2.2 -2.14,3.94 -4.33,4.43l-24.7 5.49c-10.69,2.38 -18.16,11.69 -18.16,22.65l0 12.76c0,7.8 6.34,14.14 14.13,14.14l69.03 0c5.36,0 10.51,-1.96 14.51,-5.53l122.68 -109.49c5.29,-4.72 8.41,-11.5 8.55,-18.59l0 0zm-27.32 -26.26l-45.92 51.03c-0.99,-10.96 -0.95,-22.01 0.13,-32.96l3.82 -38.91c0.6,-0.46 1.07,-1.09 1.34,-1.8l4.68 -12.23 35.95 34.87zm-61.75 -5.62l1.05 -0.8 -10.04 37.74c-4.5,16.92 -5.82,34.29 -3.95,51.67l-20.02 22.25c3.63,-28.73 10.98,-56.83 21.91,-83.7l11.05 -27.16zm-5.25 80.07c-0.69,-13.8 0.75,-27.54 4.33,-40.98l11.06 -41.59 -2.49 25.38c-1.38,13.99 -1.14,28.14 0.7,42.08l-13.6 15.11zm80.21 -35.83l-122.68 109.49c-2.47,2.2 -5.64,3.41 -8.95,3.41l-69.03 0c-3.19,0 -5.78,-2.6 -5.78,-5.79l0 -3.46 27.87 0c2.31,0 4.18,-1.87 4.18,-4.18 0,-2.31 -1.87,-4.18 -4.18,-4.18l-27.87 0 0 -0.95c0,-7.01 4.78,-12.97 11.62,-14.49l24.7 -5.49c5.43,-1.2 9.63,-5.5 10.71,-10.95l2.96 -14.95 10.05 0c2.31,0 4.18,-1.87 4.18,-4.18 0,-2.3 -1.87,-4.17 -4.18,-4.17l-8.39 0 1.79 -9.03 11.96 0c2.3,0 4.17,-1.87 4.17,-4.17 0,-2.31 -1.87,-4.18 -4.17,-4.18l-10.3 0 1.78 -9.02 5.18 0c2.3,0 4.17,-1.87 4.17,-4.18 0,-2.31 -1.87,-4.18 -4.17,-4.18l-3.52 0 1.79 -9.02 15.26 0c2.31,0 4.18,-1.87 4.18,-4.18 0,-2.3 -1.87,-4.17 -4.18,-4.17l-13.6 0 3.63 -18.32c0.37,-1.85 2.01,-3.17 3.85,-3.17 0.17,0 0.34,0.02 0.5,0.04 6.95,0.89 13.77,2.7 20.25,5.35l4.17 1.71c5.61,2.29 12.07,1.42 16.87,-2.27l7.1 -5.46 -5.66 13.91c-12.69,31.17 -20.66,63.95 -23.73,97.46l-15.09 16.77c-0.74,0.82 -1.8,1.29 -2.91,1.29l-25.3 0c-2.31,0 -4.18,1.87 -4.18,4.18 0,2.3 1.87,4.17 4.18,4.17l25.3 0c3.47,0 6.8,-1.48 9.12,-4.06l15.99 -17.76 0 0 103.14 -114.62 7.74 7.51c3.49,3.38 5.35,7.91 5.25,12.76 -0.1,4.85 -2.15,9.3 -5.77,12.53z"/>
<path fill="black" fill-rule="nonzero" d="M274 259.55l-7.2 7.53c-1.6,1.67 -1.54,4.31 0.13,5.9 0.81,0.78 1.84,1.16 2.88,1.16 1.1,0 2.2,-0.43 3.02,-1.29l7.2 -7.52c1.6,-1.67 1.54,-4.31 -0.13,-5.91 -1.67,-1.59 -4.31,-1.53 -5.9,0.14l0 -0.01z"/>
<path fill="black" fill-rule="nonzero" d="M299.48 232.92l-13.08 13.67c-1.59,1.67 -1.54,4.31 0.13,5.91 0.81,0.77 1.85,1.15 2.89,1.15 1.1,0 2.19,-0.43 3.01,-1.28l13.09 -13.68c1.59,-1.66 1.53,-4.31 -0.13,-5.9 -1.67,-1.6 -4.31,-1.54 -5.91,0.13l0 0z"/>
<path fill="black" fill-rule="nonzero" d="M179.63 297.32l4.25 0c2.3,0 4.17,-1.87 4.17,-4.18 0,-2.3 -1.87,-4.17 -4.17,-4.17l-4.25 0c-2.31,0 -4.18,1.87 -4.18,4.17 0,2.31 1.87,4.18 4.18,4.18z"/>
<path fill="black" fill-rule="nonzero" d="M181.86 262.57l5.21 0c2.31,0 4.18,-1.87 4.18,-4.18 0,-2.31 -1.87,-4.17 -4.18,-4.17l-5.21 0c-2.31,0 -4.18,1.86 -4.18,4.17 0,2.31 1.87,4.18 4.18,4.18l0 0z"/>
<path fill="black" fill-rule="nonzero" d="M240.79 120.63l24.59 0c2.31,0 4.18,-1.87 4.18,-4.17 0,-2.31 -1.87,-4.18 -4.18,-4.18l-24.59 0c-2.3,0 -4.17,1.87 -4.17,4.18 0,2.3 1.87,4.17 4.17,4.17l0 0z"/>
<path fill="black" fill-rule="nonzero" d="M285.91 120.63l6.34 0c2.31,0 4.17,-1.87 4.17,-4.17 0,-2.31 -1.86,-4.18 -4.17,-4.18l-6.34 0c-2.31,0 -4.17,1.87 -4.17,4.18 0,2.3 1.86,4.17 4.17,4.17l0 0z"/>
<path fill="black" fill-rule="nonzero" d="M332.42 148.84c0,-2.31 -1.87,-4.18 -4.18,-4.18l-45.88 0c-2.3,0 -4.17,1.87 -4.17,4.18 0,2.31 1.87,4.18 4.17,4.18l45.88 0c2.31,0 4.18,-1.87 4.18,-4.18z"/>
<path fill="black" fill-rule="nonzero" d="M357.85 269.18l-25.1 0c-2.3,0 -4.17,1.87 -4.17,4.18 0,2.31 1.87,4.18 4.17,4.18l25.1 0c2.31,0 4.17,-1.87 4.17,-4.18 0,-2.31 -1.87,-4.18 -4.17,-4.18l0 0z"/>
<path fill="black" fill-rule="nonzero" d="M298.59 315.32l-25.18 0c-2.3,0 -4.17,1.87 -4.17,4.17 0,2.31 1.87,4.18 4.17,4.18l25.18 0c2.3,0 4.17,-1.87 4.17,-4.18 0,-2.3 -1.87,-4.17 -4.17,-4.17z"/>
<path fill="black" fill-rule="nonzero" d="M322.92 315.32l-5.83 0c-2.31,0 -4.18,1.87 -4.18,4.17 0,2.31 1.87,4.18 4.18,4.18l5.83 0c2.31,0 4.17,-1.87 4.17,-4.18 0,-2.3 -1.86,-4.17 -4.17,-4.17z"/>
</svg>