<svg xmlns="http://www.w3.org/2000/svg" viewBox="0 0 450 450" width="4.5mm" height="4.5mm" shape-rendering="geometricPrecision" image-rendering="optimizeQuality">
<path fill="#03AA6F" d="M384.33 73.45l-23.28 15.52 -38.8 -7.76 -23.27 -7.76 -31.04 7.76 -23.28 -7.76 15.52 -31.05 31.04 0 30.41 -15.21c23.46,11.6 44.68,27.27 62.7,46.26z"/>
<path fill="#03AA6F" d="M205.87 42.4l-7.76 23.29 -23.28 7.76 -23.28 38.8 -38.79 23.29 -54.32 7.76 0 23.28 15.52 15.52 0 31.05 -23.28 -15.53 -23.27 -15.52 -13.5 -40.59c23.23,-55.39 67.66,-99.18 123.37,-121.62l22.03 14.75 46.56 7.76z"/>
<polygon fill="#03AA6F" points="221.38,259.71 213.63,298.52 182.59,329.56 182.59,352.85 151.55,376.13 151.55,414.94 128.28,407.17 112.76,368.37 112.76,290.76 73.96,283 58.44,251.95 58.44,228.67 73.96,213.15 97.24,189.86 112.76,220.91 167.07,220.91 190.35,259.71 "/>
<path fill="#03AA6F" d="M417.69 118.69c42.36,75.59 37.53,168.79 -12.41,239.59l-20.95 -20.96 0 -31.04 -15.52 -31.05 -15.52 -31.04 0 -31.04 -23.28 -15.53 -31.03 7.76 -54.32 -23.28 -7.76 -54.33 23.28 -23.28 46.56 0 15.51 23.28 46.56 7.76 46.55 -15.52 2.33 -1.32z"/>
<path fill="#86DAF1" d="M267.94 81.21l31.04 -7.76 23.27 7.76 38.8 7.76 23.28 -15.52c12.99,13.6 24.21,28.81 33.36,45.24l-2.33 1.32 -46.55 15.53 -46.56 -7.77 -15.51 -23.28 -46.56 0 -23.28 23.28 7.76 54.33 54.32 23.29 31.03 -7.77 23.28 15.53 0 31.04 15.52 31.05 15.52 31.04 0 31.05 20.95 20.95c-71.66,101.56 -212.06,125.78 -313.59,54.11 -86.23,-60.88 -118.57,-173.52 -77.78,-270.88l13.5 40.59 23.27 15.52 23.28 15.53 -15.52 15.52 0 23.28 15.52 31.05 38.8 7.76 0 77.61 15.51 38.8 23.28 7.77 0 -38.81 31.04 -23.28 0 -23.29 31.04 -31.04 7.75 -38.81 -31.03 0 -23.28 -38.8 -54.31 0 -15.52 -31.05 -23.28 23.29 0 -31.05 -15.52 -15.52 0 -23.28 54.32 -7.76 38.79 -23.29 23.28 -38.8 23.28 -7.76 7.76 -23.29 -46.56 -7.76 -22.03 -14.75c59.66,-24.03 126.76,-21.38 184.35,7.3l-30.41 15.21 -31.04 0 -15.52 31.05 23.28 7.76z"/>
</svg>