<svg xmlns="http://www.w3.org/2000/svg" viewBox="0 0 450 450" width="4.5mm" height="4.5mm" shape-rendering="geometricPrecision"  image-rendering="optimizeQuality">
<circle fill="#F0F0F0" fill-rule="nonzero" cx="221.4" cy="228.6" r="225"/>
<path fill="#0052B4" fill-rule="nonzero" d="M42.91 91.62c-17.67,22.99 -31,49.49 -38.76,78.29l117.05 0 -78.29 -78.29z"/>
<path fill="#0052B4" fill-rule="nonzero" d="M438.65 169.91c-7.76,-28.8 -21.09,-55.3 -38.76,-78.29l-78.29 78.29 117.05 0z"/>
<path fill="#0052B4" fill-rule="nonzero" d="M4.15 287.3c7.76,28.79 21.09,55.29 38.76,78.29l78.29 -78.29 -117.05 0 0 0z"/>
<path fill="#0052B4" fill-rule="nonzero" d="M358.38 50.11c-22.99,-17.67 -49.49,-31 -78.28,-38.76l0 117.05 78.28 -78.29z"/>
<path fill="#0052B4" fill-rule="nonzero" d="M84.42 407.09c22.99,17.67 49.49,31 78.28,38.76l0 -117.05 -78.28 78.29z"/>
<path fill="#0052B4" fill-rule="nonzero" d="M162.7 11.35c-28.79,7.76 -55.29,21.09 -78.28,38.76l78.28 78.29 0 -117.05z"/>
<path fill="#0052B4" fill-rule="nonzero" d="M280.1 445.85c28.79,-7.76 55.29,-21.09 78.28,-38.76l-78.28 -78.29 0 117.05z"/>
<path fill="#0052B4" fill-rule="nonzero" d="M321.6 287.3l78.29 78.29c17.67,-23 31,-49.5 38.76,-78.29l-117.05 0z"/>
<path fill="#D80027" fill-rule="nonzero" d="M444.5 199.25l-193.75 0 0 0 0 -193.75c-9.61,-1.25 -19.4,-1.9 -29.35,-1.9 -9.95,0 -19.74,0.65 -29.35,1.9l0 193.75 0 0 -193.75 0c-1.25,9.61 -1.9,19.4 -1.9,29.35 0,9.95 0.65,19.74 1.9,29.35l193.75 0 0 0 0 193.75c9.61,1.25 19.4,1.9 29.35,1.9 9.95,0 19.74,-0.65 29.35,-1.9l0 -193.75 0 0 193.75 0c1.25,-9.61 1.9,-19.4 1.9,-29.35 0,-9.95 -0.65,-19.74 -1.9,-29.35z"/>
<path fill="#D80027" fill-rule="nonzero" d="M280.1 287.3l0 0 100.4 100.4c4.62,-4.62 9.02,-9.44 13.22,-14.45l-85.95 -85.95 -27.67 0 0 0z"/>
<path fill="#D80027" fill-rule="nonzero" d="M162.7 287.3l0 0 -100.4 100.4c4.62,4.62 9.44,9.02 14.45,13.22l85.95 -85.96 0 -27.66z"/>
<path fill="#D80027" fill-rule="nonzero" d="M162.7 169.91l0 -0.01 -100.4 -100.4c-4.62,4.62 -9.02,9.44 -13.22,14.45l85.96 85.95 27.66 0 0 0.01z"/>
<path fill="#D80027" fill-rule="nonzero" d="M280.1 169.91l0 0 100.4 -100.41c-4.62,-4.62 -9.44,-9.02 -14.45,-13.22l-85.95 85.96 0 27.67z"/>
</svg>