<svg xmlns="http://www.w3.org/2000/svg" viewBox="0 0 450 450" width="4.5mm" height="4.5mm" shape-rendering="geometricPrecision" image-rendering="optimizeQuality">
<path fill="#ED8A19" d="M221.4 228.6l-225 0c0,123.51 100.02,225 225,225l0 -225z"/>
<path fill="#EBBA16" d="M221.4 228.6l0 -225c-123.51,0 -225,100.02 -225,225l225 0z"/>
<path fill="#556080" d="M221.4 228.6l225 0c0,123.51 -100.02,225 -225,225l0 -225z"/>
<path fill="#ED8A19" d="M221.4 228.6l0 -225c123.51,0 225,100.02 225,225l-225 0z"/>
<path fill="white" d="M359.17 327.31l-85.05 0c-7.04,0 -12.75,5.71 -12.75,12.76 0,7.04 5.71,12.75 12.75,12.75l85.05 0c7.04,0 12.76,-5.71 12.76,-12.75 0,-7.05 -5.72,-12.76 -12.76,-12.76l0 0zm-85.05 -25.51l85.05 0c7.04,0 12.76,-5.71 12.76,-12.76 0,-7.05 -5.72,-12.76 -12.76,-12.76l-85.05 0c-7.04,0 -12.75,5.72 -12.75,12.76 0,7.05 5.71,12.76 12.75,12.76l0 0z"/>
<path fill="white" d="M168.68 129.89l-29.26 0 0 -29.26c0,-7.05 -5.72,-12.76 -12.76,-12.76 -7.05,0 -12.76,5.71 -12.76,12.76l0 29.26 -30.27 0c-7.04,0 -12.76,5.71 -12.76,12.76 0,7.04 5.72,12.75 12.76,12.75l30.27 0 0 30.27c0,7.05 5.71,12.76 12.76,12.76 7.04,0 12.76,-5.71 12.76,-12.76l0 -30.27 29.26 0c7.04,0 12.75,-5.71 12.75,-12.75 0,-7.05 -5.71,-12.76 -12.75,-12.76l0 0z"/>
<path fill="white" d="M146.84 275.47l-20.69 20.69 -20.69 -20.69c-4.98,-4.99 -13.06,-4.99 -18.04,0 -4.98,4.98 -4.98,13.06 0,18.04l20.69 20.69 -21.4 21.4c-4.98,4.98 -4.98,13.06 0,18.04 4.98,4.98 13.06,4.98 18.04,0l21.4 -21.4 21.41 21.4c4.98,4.98 13.06,4.98 18.04,0 4.98,-4.98 4.98,-13.06 0,-18.04l-21.41 -21.4 20.69 -20.69c4.99,-4.99 4.99,-13.06 0,-18.04 -4.98,-4.99 -13.05,-4.99 -18.04,0l0 0z"/>
<path fill="white" d="M359.17 129.89l-85.05 0c-7.04,0 -12.75,5.71 -12.75,12.76 0,7.04 5.71,12.75 12.75,12.75l85.05 0c7.04,0 12.76,-5.71 12.76,-12.75 0,-7.05 -5.72,-12.76 -12.76,-12.76l0 0z"/>
</svg>