<svg xmlns="http://www.w3.org/2000/svg" viewBox="0 0 450 450" width="4.5mm" height="4.5mm" shape-rendering="geometricPrecision" image-rendering="optimizeQuality">
<circle fill="#FFCE00" cx="221.4" cy="228.6" r="225"/>
<path fill="#030104" fill-rule="nonzero" d="M278.45 236.15c-10.56,-12.08 -25.65,-19.62 -43.76,-18.11 -1.51,-3.02 -7.55,-33.2 -7.55,-33.2 0,0 21.13,-31.69 25.66,-37.73 22.64,-36.22 24.14,-64.89 10.56,-93.56 -4.52,-10.56 -16.6,-19.62 -28.67,-19.62 -9.05,0 -16.6,7.55 -21.13,16.6 -15.09,25.66 -15.09,73.94 -7.54,107.14 0,0 -7.55,7.55 -15.09,16.6 -15.09,16.6 -31.69,34.71 -37.73,58.86 -7.55,27.16 -1.51,52.81 15.09,72.43 18.11,22.64 45.27,33.2 78.47,30.18 6.04,28.68 10.57,46.79 1.51,63.38 -3.02,6.04 -9.05,12.08 -19.62,12.08 -3.02,0 -4.52,0 -7.54,-1.51 9.05,-4.53 16.6,-13.58 16.6,-24.15 0,-15.09 -12.08,-27.16 -27.17,-27.16 -25.65,1.51 -27.16,27.16 -27.16,27.16 0,9.06 3.02,18.11 9.06,24.15 7.54,7.54 19.61,13.58 33.19,13.58 16.6,0 33.2,-6.04 39.24,-30.18 6.04,-19.62 -4.53,-51.31 -6.04,-61.87 16.6,-7.55 31.7,-30.18 33.2,-45.28 3.02,-16.59 -3.01,-36.21 -13.58,-49.79zm-48.29 -167.51c1.51,-3.02 4.53,-4.53 7.55,-4.53 1.51,0 4.53,1.51 6.04,3.02 6.03,3.02 7.54,9.06 7.54,18.11 -1.51,22.64 -21.13,49.8 -31.69,58.85 -4.53,-21.12 -1.51,-60.36 10.56,-75.45zm-43.76 236.92c-10.56,-10.56 -15.09,-25.65 -13.58,-40.74 3.02,-24.15 19.62,-43.76 33.2,-58.85 3.02,-3.02 6.03,-6.04 7.54,-9.06 1.51,7.55 6.04,19.62 7.55,25.65 -18.11,7.55 -28.67,31.7 -27.16,51.31 0,9.06 3.01,15.09 7.54,21.13 1.51,1.51 3.02,3.02 4.53,3.02 1.51,0 4.53,-1.51 4.53,-3.02l0 0c1.5,-1.51 1.5,-4.53 0,-6.04 -1.51,-1.51 -1.51,-3.01 -1.51,-6.03 -1.51,-13.58 7.54,-24.15 18.11,-28.68 1.5,9.06 12.07,55.84 13.58,66.4 -19.62,6.04 -40.75,0 -54.33,-15.09zm67.91 9.06c-3.02,-10.57 -4.53,-22.64 -7.55,-36.22 -1.51,-9.05 -3.02,-19.62 -6.03,-28.67 19.61,0 25.65,16.6 27.16,22.63 4.53,16.6 0,33.2 -13.58,42.26z"/>
<path fill="black" fill-rule="nonzero" d="M381.33 329.7c3.78,-6.31 6.28,-14.3 6.77,-22.2 0.31,-5.08 -0.82,-10.4 -3.27,-15.41 -3.84,-7.87 -10.44,-12.28 -16.81,-16.55 -4.75,-3.19 -9.25,-6.2 -12.42,-10.49l-0.57 -0.77c-1.88,-2.52 -4,-5.38 -4.34,-7.78 -0.33,-2.43 -2.54,-4.16 -4.95,-4.02 -2.45,0.17 -4.34,2.2 -4.34,4.65l0 83.24c-3.92,-2.37 -8.74,-3.83 -14.01,-3.83 -12.88,0 -23.36,8.38 -23.36,18.68 0,10.31 10.48,18.69 23.36,18.69 12.87,0 23.35,-8.38 23.35,-18.69l0 -54.44c7.02,2.68 18.5,9.51 21.65,25.46 -0.58,0.86 -1.14,1.8 -1.8,2.55 -1.71,1.93 -1.52,4.88 0.42,6.58 1.93,1.72 4.88,1.52 6.59,-0.42 1.25,-1.42 2.36,-3.08 3.43,-4.82 0.11,-0.13 0.21,-0.27 0.3,-0.43z"/>
<path fill="black" fill-rule="nonzero" d="M145.16 155.15c3.78,-6.32 6.28,-14.3 6.77,-22.21 0.31,-5.07 -0.83,-10.39 -3.27,-15.4 -3.84,-7.87 -10.44,-12.29 -16.81,-16.56 -4.75,-3.18 -9.25,-6.19 -12.42,-10.49l-0.57 -0.76c-1.88,-2.52 -4,-5.38 -4.34,-7.78 -0.33,-2.43 -2.54,-4.16 -4.95,-4.02 -2.45,0.17 -4.34,2.19 -4.34,4.65l0 83.24c-3.92,-2.38 -8.74,-3.83 -14.02,-3.83 -12.87,0 -23.35,8.38 -23.35,18.68 0,10.31 10.48,18.68 23.35,18.68 12.88,0 23.36,-8.37 23.36,-18.68l0 -54.44c7.01,2.68 18.5,9.51 21.65,25.45 -0.59,0.87 -1.15,1.81 -1.8,2.55 -1.71,1.94 -1.52,4.89 0.42,6.59 1.92,1.72 4.88,1.51 6.59,-0.42 1.25,-1.42 2.36,-3.08 3.42,-4.82 0.12,-0.13 0.22,-0.27 0.31,-0.43z"/>
</svg>