<svg xmlns="http://www.w3.org/2000/svg" viewBox="0 0 450 450" width="4.5mm" height="4.5mm" shape-rendering="geometricPrecision" image-rendering="optimizeQuality">
<circle fill="#FF7B79" cx="221.4" cy="228.6" r="225"/>
<path fill="#FCE8D0" fill-rule="nonzero" d="M345.51 240.21c-6.7,-2.37 -14.42,-0.82 -19.72,4.48l-14.19 14.18c-13.64,13.64 -42.82,18.34 -42.88,18.36 -15.95,1.6 -28.1,15.03 -28.1,31.06l0 82.49 66.98 0 0 -37.91 33.91 -16.96c25.69,-12.84 41.91,-39.1 41.91,-67.81l0 -85.84c0,-10.47 -8.48,-18.95 -18.95,-18.95 -10.47,0 -18.96,8.48 -18.96,18.95l0 57.95z"/>
<path fill="black" fill-rule="nonzero" d="M344.34 341.56l-30.42 15.21 0 34.01c0,3.49 -2.83,6.32 -6.32,6.32l-66.98 0c-3.49,0 -6.31,-2.83 -6.31,-6.32l0 -82.49c0,-19.36 14.52,-35.41 33.73,-37.34l0.51 -0.06c11.12,-1.11 30.81,-8.72 38.58,-16.49l14.19 -14.18c4.78,-4.78 11.13,-7.41 17.87,-7.41l0 -50.55c0,-13.93 11.34,-25.27 25.28,-25.27 13.93,0 25.27,11.34 25.27,25.27l0 85.84c0,31.09 -17.56,59.54 -45.4,73.46zm32.77 -159.3c0,-6.96 -5.67,-12.63 -12.64,-12.63 -6.97,0 -12.64,5.67 -12.64,12.63l0 53.94c7.71,4.46 12.64,12.76 12.64,21.89 0,6.75 -2.63,13.09 -7.41,17.87l-32.35 32.36c-2.47,2.47 -6.47,2.47 -8.94,0 -2.47,-2.47 -2.47,-6.47 0,-8.93l32.36 -32.37c2.39,-2.39 3.7,-5.56 3.7,-8.93 0,-5.35 -3.38,-10.14 -8.42,-11.92 0,0 0,0 -0.01,0 0,0 0,0 0,0 -4.36,-1.55 -9.53,-0.63 -13.14,2.99l-14.19 14.18c-14.65,14.65 -46.66,20.16 -46.72,20.18 -12.78,1.28 -22.41,11.93 -22.41,24.77l0 76.17 54.34 0 0 -31.59c0,-2.4 1.36,-4.59 3.5,-5.65l33.91 -16.96c23.69,-11.85 38.42,-35.67 38.42,-62.16l0 -85.84z"/>   
<path fill="#FF7B79" fill-rule="nonzero" d="M267.76 100.12c34.62,0 46.68,31.88 46.68,50.55 0,37.91 -31.17,59.45 -86.45,107.42 -55.29,-47.97 -86.45,-69.51 -86.45,-107.42 0,-18.67 12.06,-50.55 46.67,-50.55 21.25,0 33.03,15.51 39.78,27.86 6.75,-12.35 18.52,-27.86 39.77,-27.86z"/>
<path fill="black" fill-rule="nonzero" d="M320.76 150.67c0,-21.99 -14.39,-56.87 -53,-56.87 -15.86,0 -29.2,7.48 -39.77,22.26 -10.57,-14.78 -23.92,-22.26 -39.78,-22.26 -38.61,0 -52.99,34.88 -52.99,56.87 0,37.91 29.58,61.62 70,96.18 5.94,5.08 12.08,10.33 18.63,16.01 1.18,1.03 2.66,1.55 4.14,1.55 1.47,0 2.95,-0.52 4.14,-1.55 6.54,-5.68 12.69,-10.93 18.62,-16.01 42.32,-36.18 70.01,-59.07 70.01,-96.18zm-92.77 99.06c-5.05,-4.36 -9.87,-8.47 -14.56,-12.48 -42.28,-36.16 -65.58,-56.08 -65.58,-86.58 0,-20.69 13.54,-44.23 40.36,-44.23 14,0 25.2,8.04 34.23,24.57 1.11,2.03 3.24,3.29 5.55,3.29 2.31,0 4.43,-1.26 5.54,-3.29 9.04,-16.53 20.24,-24.57 34.23,-24.57 26.45,0 40.36,23.19 40.36,44.23 0,30.5 -23.29,50.42 -65.58,86.58 -4.69,4.01 -9.5,8.12 -14.55,12.48l0 0z"/>
<path fill="#FCE8D0" fill-rule="nonzero" d="M110.46 240.21c6.7,-2.37 14.42,-0.82 19.72,4.48l14.19 14.18c13.65,13.64 42.82,18.34 42.89,18.36 15.95,1.6 28.09,15.03 28.09,31.06l0 82.49 -66.98 0 0 -37.91 -33.91 -16.96c-25.68,-12.84 -41.91,-39.1 -41.91,-67.81l0 -85.84c0,-10.47 8.49,-18.95 18.95,-18.95 10.47,0 18.96,8.48 18.96,18.95l0 57.95z"/>
<path fill="black" fill-rule="nonzero" d="M111.63 341.56l30.42 15.21 0 34.01c0,3.49 2.83,6.32 6.32,6.32l66.98 0c3.49,0 6.32,-2.83 6.32,-6.32l0 -82.49c0,-19.36 -14.52,-35.41 -33.73,-37.34l-0.52 -0.06c-11.12,-1.11 -30.81,-8.72 -38.58,-16.49l-14.19 -14.18c-4.78,-4.78 -11.12,-7.41 -17.87,-7.41l0 -50.55c0,-13.93 -11.34,-25.27 -25.28,-25.27 -13.93,0 -25.27,11.34 -25.27,25.27l0 85.84c0,31.09 17.57,59.54 45.4,73.46zm-32.76 -159.3c0,-6.96 5.67,-12.63 12.63,-12.63 6.97,0 12.64,5.67 12.64,12.63l0 53.94c-7.7,4.46 -12.64,12.76 -12.64,21.89 0,6.75 2.63,13.09 7.41,17.87l32.36 32.36c2.46,2.47 6.47,2.47 8.93,0 2.47,-2.47 2.47,-6.47 0,-8.93l-32.35 -32.37c-2.39,-2.39 -3.71,-5.56 -3.71,-8.93 0,-5.35 3.39,-10.14 8.43,-11.92 0,0 0,0 0,0 0,0 0,0 0,0 4.36,-1.55 9.53,-0.63 13.14,2.99l14.19 14.18c14.65,14.65 46.66,20.16 46.73,20.18 12.77,1.28 22.4,11.93 22.4,24.77l0 76.17 -54.34 0 0 -31.59c0,-2.4 -1.35,-4.59 -3.49,-5.65l-33.91 -16.96c-23.7,-11.85 -38.42,-35.67 -38.42,-62.16l0 -85.84z"/>
</svg>